# xmcd
#
# Track frame offsets: 
#        150
#        5466
#        16991
#        29835
#        50994
#        65616
#        80751
#        97760
#        109554
#        121668
#        134601
#        150081
#        164551
#        174914
#        185947
#        191558
#        192834
#        212799
#        231086
#        249492
#        265873
#        280130
#        292256
#        307549
#        316963
#
# Disc length: 4271 seconds
#
# Revision: 0
# Processed by: cddbd v1.5.2PL0 Copyright (c) Steve Scherf et al.
# Submitted via: ExactAudioCopy v1.1
#
DISCID=6110ad19
DTITLE=Various Artist - Louisiana Hayride_CD19
DYEAR=2017
DGENRE=Country
TTITLE0=Intro theme and cast introduction
TTITLE1=Bobbie Jean Barton - Please Help Me I'm Falling
TTITLE2=Bobbie Jean Barton - You Burned The Bridges
TTITLE3=The Sons Of Dixie - Faded Love
TTITLE4=The Sons Of Dixie - My Window Faces The South
TTITLE5=David Houston - Sioux City Sue
TTITLE6=Buster and Kay Doss - It's A Sin To Tell A Lie
TTITLE7=Bobbie Jean Barton - Jealous Heart
TTITLE8=Jimmy Jay - Jolie Jole
TTITLE9=Buster and Kay Doss - I Wanna Be Loved
TTITLE10=Dean Evans - Time Changes Everything
TTITLE11=Jerry Jericho - I Know It's Wrong
TTITLE12=Jerry Jericho - May The Good Lord Bless And Keep You
TTITLE13=Johnny Mathis - (I'd Be) A Legend In My Time
TTITLE14=Announcer and theme out
TTITLE15=Intro announcement about this being the last weekly Hayride
TTITLE16=Tony Douglas - Familiar Heartaches
TTITLE17=Buster and Kay Doss - In The Jailhouse Now (& Comedy)
TTITLE18=Johnny Mathis - When I Came Thru Town
TTITLE19=James O'Gwynn - You're Too Easy To Remember
TTITLE20=Grandpa Jones - Are You From Dixie
TTITLE21=Dee Mullin - Under Your Spell Again
TTITLE22=Grandpa Jones - Melinda (& Announcements)
TTITLE23=Grandpa Jones - Waiting For A Train
TTITLE24=Final weekly sign off
EXTD=
EXTT0=
EXTT1=
EXTT2=
EXTT3=
EXTT4=
EXTT5=
EXTT6=
EXTT7=
EXTT8=
EXTT9=
EXTT10=
EXTT11=
EXTT12=
EXTT13=
EXTT14=
EXTT15=
EXTT16=
EXTT17=
EXTT18=
EXTT19=
EXTT20=
EXTT21=
EXTT22=
EXTT23=
EXTT24=
PLAYORDER=
